<svg width="90" height="90" viewBox="0 0 90 90" fill="none" xmlns="http://www.w3.org/2000/svg">
<path d="M35.3809 46.9512C35.8808 46.9512 36.3038 47.1053 36.6504 47.4121C36.9969 47.7189 37.2616 48.145 37.4434 48.6904C37.6308 49.2358 37.7246 49.8725 37.7246 50.5996C37.7246 51.3153 37.6308 51.9459 37.4434 52.4912C37.2615 53.0367 36.997 53.4627 36.6504 53.7695C36.3038 54.0763 35.8808 54.2295 35.3809 54.2295C34.8638 54.2295 34.4263 54.0763 34.0684 53.7695C33.7161 53.4627 33.4463 53.0366 33.2588 52.4912C33.077 51.9459 32.9864 51.3153 32.9863 50.5996C32.9863 49.8725 33.077 49.2358 33.2588 48.6904C33.4463 48.1451 33.7162 47.7189 34.0684 47.4121C34.4263 47.1053 34.8638 46.9512 35.3809 46.9512Z" fill="black"/>
<path d="M50.2402 46.9512C50.7402 46.9512 51.1632 47.1053 51.5098 47.4121C51.8563 47.7189 52.1209 48.145 52.3027 48.6904C52.4902 49.2358 52.584 49.8725 52.584 50.5996C52.5839 51.3153 52.4902 51.9459 52.3027 52.4912C52.1209 53.0367 51.8564 53.4627 51.5098 53.7695C51.1632 54.0763 50.7401 54.2295 50.2402 54.2295C49.7232 54.2295 49.2857 54.0763 48.9277 53.7695C48.5755 53.4627 48.3057 53.0366 48.1182 52.4912C47.9364 51.9459 47.8457 51.3153 47.8457 50.5996C47.8457 49.8725 47.9364 49.2358 48.1182 48.6904C48.3056 48.1451 48.5755 47.7189 48.9277 47.4121C49.2857 47.1053 49.7232 46.9512 50.2402 46.9512Z" fill="black"/>
<path d="M51.6523 32.2412C52.0509 32.2413 52.4029 32.3278 52.708 32.5C53.0182 32.6674 53.2622 32.9018 53.4395 33.2021C53.6166 33.5025 53.708 33.8446 53.7129 34.2285H49.5127C49.5306 33.8634 49.6281 33.5358 49.8057 33.2461C49.9928 32.936 50.2464 32.6919 50.5664 32.5146C50.8864 32.3326 51.2487 32.2412 51.6523 32.2412Z" fill="black"/>
<path d="M64.5469 32.4561C64.9949 32.4561 65.3715 32.579 65.6768 32.8252C65.9869 33.0714 66.2213 33.4182 66.3789 33.8662C66.5414 34.3142 66.622 34.8437 66.6221 35.4541C66.6221 36.0646 66.5413 36.5968 66.3789 37.0498C66.2213 37.5028 65.987 37.8553 65.6768 38.1064C65.3666 38.3526 64.9899 38.4755 64.5469 38.4756C64.1088 38.4756 63.7321 38.3525 63.417 38.1064C63.1068 37.8553 62.8676 37.5028 62.7002 37.0498C62.5377 36.5968 62.4561 36.0647 62.4561 35.4541C62.4561 34.8338 62.5377 34.2996 62.7002 33.8516C62.8676 33.4035 63.1068 33.0586 63.417 32.8174C63.7271 32.5763 64.1039 32.4561 64.5469 32.4561Z" fill="black"/>
<path fill-rule="evenodd" clip-rule="evenodd" d="M77 37.5H85.5L80.5 68L46.5 83.5V73L18 76L5 37.5H18L11.5 16L77 6V37.5ZM35.3555 43.8662C33.9805 43.8662 32.7982 44.1506 31.8096 44.7188C30.8267 45.2812 30.0682 46.0709 29.5342 47.0879C29.0058 48.0992 28.7412 49.2784 28.7412 50.625C28.7412 51.9658 29.0058 53.1451 29.5342 54.1621C30.0683 55.1733 30.8267 55.9631 31.8096 56.5312C32.7982 57.0938 33.9805 57.375 35.3555 57.375C36.7304 57.375 37.9097 57.0937 38.8926 56.5312C39.881 55.9631 40.6396 55.1733 41.168 54.1621C41.702 53.1451 41.9687 51.9658 41.9688 50.625C41.9688 49.2785 41.702 48.0992 41.168 47.0879C40.6396 46.071 39.881 45.2812 38.8926 44.7188C37.9097 44.1506 36.7304 43.8662 35.3555 43.8662ZM50.2148 43.8662C48.8398 43.8662 47.6576 44.1506 46.6689 44.7188C45.6861 45.2812 44.9276 46.0709 44.3936 47.0879C43.8652 48.0992 43.6006 49.2784 43.6006 50.625C43.6006 51.9658 43.8652 53.1451 44.3936 54.1621C44.9276 55.1733 45.6861 55.9631 46.6689 56.5312C47.6576 57.0938 48.8398 57.375 50.2148 57.375C51.5897 57.375 52.7691 57.0937 53.752 56.5312C54.7404 55.9631 55.499 55.1733 56.0273 54.1621C56.5614 53.1451 56.8281 51.9658 56.8281 50.625C56.8281 49.2785 56.5614 48.0992 56.0273 47.0879C55.499 46.071 54.7404 45.2812 53.752 44.7188C52.7691 44.1506 51.5897 43.8662 50.2148 43.8662ZM20.7305 40.9004V44.0371H19V47.1045H20.7305V53.4717C20.7191 54.3579 20.8952 55.0935 21.2588 55.6787C21.6281 56.2639 22.1594 56.6962 22.8525 56.9746C23.5513 57.2472 24.3892 57.3608 25.3662 57.3154C25.8662 57.2927 26.2954 57.2385 26.6533 57.1533C27.0169 57.0681 27.2982 56.9972 27.4971 56.9404L26.8662 53.9316C26.7753 53.9544 26.6387 53.9825 26.457 54.0166C26.281 54.045 26.1131 54.0596 25.9541 54.0596C25.7328 54.0595 25.5427 54.0282 25.3838 53.9658C25.2247 53.8977 25.1018 53.7871 25.0166 53.6338C24.9371 53.4747 24.8975 53.2664 24.8975 53.0107V47.1045H27.2588V44.0371H24.8975V40.9004H20.7305ZM67.0508 43.8662C66.0851 43.8663 65.2525 44.0965 64.5537 44.5566C63.855 45.0112 63.361 45.6394 63.0713 46.4404H62.9258V44.0371H58.9629V57.1279H63.1309V49.6621C63.1365 49.1621 63.2272 48.7351 63.4033 48.3828C63.5851 48.0307 63.8414 47.7607 64.1709 47.5732C64.506 47.3802 64.8928 47.2842 65.3301 47.2842C65.9889 47.2843 66.5028 47.4885 66.8721 47.8975C67.247 48.3065 67.4314 48.8745 67.4258 49.6016V57.1279H71.5938V48.7842C71.5994 47.8012 71.4119 46.9429 71.0312 46.21C70.6563 45.4714 70.128 44.8974 69.4463 44.4883C68.7702 44.0735 67.9712 43.8662 67.0508 43.8662ZM51.5781 29.6348C50.4358 29.6348 49.4436 29.8807 48.6016 30.373C47.7595 30.8605 47.1064 31.5453 46.6436 32.4268C46.1808 33.3032 45.9492 34.3273 45.9492 35.499C45.9492 36.7053 46.1789 37.7466 46.6367 38.623C47.0996 39.4946 47.7594 40.1669 48.6162 40.6396C49.4779 41.1074 50.5019 41.3418 51.6885 41.3418C52.6782 41.3418 53.5503 41.191 54.3037 40.8906C55.057 40.5853 55.6651 40.1598 56.1279 39.6133C56.5957 39.0618 56.8982 38.4143 57.0361 37.6709L53.7197 37.5742C53.6262 37.8254 53.4859 38.0376 53.2988 38.21C53.1117 38.3822 52.8879 38.513 52.627 38.6016C52.366 38.6902 52.075 38.7344 51.7549 38.7344C51.2922 38.7343 50.8934 38.6383 50.5586 38.4463C50.2238 38.2542 49.9654 37.9853 49.7832 37.6406C49.6011 37.2911 49.5098 36.8846 49.5098 36.4219V36.3262H57.0732V35.4248C57.0732 34.4944 56.9377 33.6699 56.667 32.9512C56.3962 32.2273 56.0168 31.6184 55.5293 31.126C55.0419 30.6337 54.4635 30.2618 53.7939 30.0107C53.1243 29.7596 52.3856 29.6348 51.5781 29.6348ZM58.918 26V41.127H62.4932V39.2881H62.6045C62.7571 39.6376 62.9733 39.9653 63.2539 40.2705C63.5395 40.5758 63.892 40.8217 64.3105 41.0088C64.7291 41.1959 65.2238 41.29 65.7949 41.29C66.632 41.29 67.3927 41.073 68.0771 40.6396C68.7665 40.2063 69.313 39.5561 69.7168 38.6895C70.1255 37.8228 70.3301 36.7471 70.3301 35.4619C70.3301 34.1277 70.1187 33.0296 69.6953 32.168C69.2718 31.3062 68.7148 30.6685 68.0254 30.2549C67.341 29.8413 66.6051 29.6338 65.8174 29.6338C65.2215 29.6338 64.7087 29.7375 64.2803 29.9443C63.857 30.1462 63.5071 30.4076 63.2314 30.7275C62.9608 31.0475 62.7522 31.38 62.6045 31.7246H62.5303V26H58.918ZM27.8584 29.7822L30.8135 41.1279H34.6836L36.4561 34.5166H36.582L38.3545 41.1279H42.2178L45.1797 29.7822H41.5527L40.0684 36.999H39.9717L38.2881 29.7822H34.75L33.1104 37.0508H33.0146L31.4854 29.7822H27.8584Z" fill="black"/>
</svg>
